<?xml version="1.0" encoding="UTF-8"?>
<!DOCTYPE svg PUBLIC "-//W3C//DTD SVG 1.1//EN" "http://www.w3.org/Graphics/SVG/1.1/DTD/svg11.dtd">
<svg xmlns="http://www.w3.org/2000/svg" version="1.1" width="2811px" height="390px" style="shape-rendering:geometricPrecision; text-rendering:geometricPrecision; image-rendering:optimizeQuality; fill-rule:evenodd; clip-rule:evenodd" xmlns:xlink="http://www.w3.org/1999/xlink">
<g><path style="opacity:0.943" fill="#000000" d="M 1128.5,-0.5 C 1131.5,-0.5 1134.5,-0.5 1137.5,-0.5C 1137.5,129.5 1137.5,259.5 1137.5,389.5C 1134.5,389.5 1131.5,389.5 1128.5,389.5C 1128.5,259.5 1128.5,129.5 1128.5,-0.5 Z"/></g>
<g><path style="opacity:0.997" fill="#e1251b" d="M -0.5,24.5 C 338.167,24.5 676.833,24.5 1015.5,24.5C 1015.5,137.5 1015.5,250.5 1015.5,363.5C 676.833,363.5 338.167,363.5 -0.5,363.5C -0.5,250.5 -0.5,137.5 -0.5,24.5 Z"/></g>
<g><path style="opacity:0.981" fill="#034e91" d="M 1560.5,95.5 C 1581.12,94.3203 1601.45,96.1536 1621.5,101C 1628.39,103.113 1635.06,105.78 1641.5,109C 1642.73,109.779 1643.73,110.779 1644.5,112C 1640.52,120.44 1637.02,128.94 1634,137.5C 1658.48,111.684 1688.64,97.8512 1724.5,96C 1748.73,93.8564 1772.4,96.523 1795.5,104C 1799.99,105.603 1804.15,107.77 1808,110.5C 1808.5,107.183 1808.67,103.85 1808.5,100.5C 1828.5,100.5 1848.5,100.5 1868.5,100.5C 1866.19,132.155 1864.36,163.822 1863,195.5C 1882.04,163.917 1901.21,132.417 1920.5,101C 1935.74,100.176 1950.91,100.343 1966,101.5C 1967.89,133.212 1970.23,164.879 1973,196.5C 1987.31,164.565 2001.81,132.732 2016.5,101C 2037.83,100.5 2059.16,100.333 2080.5,100.5C 2050.43,157.796 2019.43,214.63 1987.5,271C 1965.5,271.5 1943.5,271.667 1921.5,271.5C 1921.2,245.807 1920.36,220.14 1919,194.5C 1905.63,220.079 1892.13,245.579 1878.5,271C 1853.84,271.5 1829.17,271.667 1804.5,271.5C 1805.9,219.495 1807.07,167.495 1808,115.5C 1803.08,127.614 1797.42,139.28 1791,150.5C 1772.89,135.099 1752.06,129.932 1728.5,135C 1696.03,142.779 1678.03,163.279 1674.5,196.5C 1677.65,221.82 1691.99,235.987 1717.5,239C 1726.5,239.667 1735.5,239.667 1744.5,239C 1758.14,236.875 1771.47,233.875 1784.5,230C 1772.53,243.634 1760.2,256.967 1747.5,270C 1721.66,277.733 1695.66,278.399 1669.5,272C 1646.66,265.811 1629.83,252.311 1619,231.5C 1606.83,244.333 1594.67,257.167 1582.5,270C 1553.35,278.992 1524.35,278.659 1495.5,269C 1459.03,252.25 1443.2,223.75 1448,183.5C 1436.56,200.644 1420.73,211.478 1400.5,216C 1377.32,220.49 1354.16,220.657 1331,216.5C 1324.66,234.687 1318.83,253.021 1313.5,271.5C 1292.16,271.833 1270.82,271.5 1249.5,270.5C 1267.32,214.213 1284.99,157.88 1302.5,101.5C 1335.16,100.333 1367.83,100.167 1400.5,101C 1418.62,102.648 1434.12,109.814 1447,122.5C 1454.34,131.819 1458,142.486 1458,154.5C 1472.64,128.875 1494.14,111.708 1522.5,103C 1535.09,99.3816 1547.76,96.8816 1560.5,95.5 Z M 1569.5,133.5 C 1590.7,130.96 1609.37,136.46 1625.5,150C 1611.04,175.311 1608.71,201.644 1618.5,229C 1595.7,238.542 1572.03,241.542 1547.5,238C 1519.37,231.567 1507.2,214.067 1511,185.5C 1519.67,155.995 1539.17,138.661 1569.5,133.5 Z M 1353.5,139.5 C 1361.17,139.334 1368.84,139.5 1376.5,140C 1389.27,141.757 1394.77,148.923 1393,161.5C 1385.82,176.017 1373.99,182.683 1357.5,181.5C 1352.71,181.577 1348.04,180.91 1343.5,179.5C 1343.17,178.833 1342.83,178.167 1342.5,177.5C 1346.48,164.904 1350.15,152.238 1353.5,139.5 Z"/></g>
<g><path style="opacity:1" fill="#fffcfc" d="M 93.5,102.5 C 105.833,102.5 118.167,102.5 130.5,102.5C 130.5,147.833 130.5,193.167 130.5,238.5C 157.5,238.5 184.5,238.5 211.5,238.5C 211.5,249.5 211.5,260.5 211.5,271.5C 172.167,271.5 132.833,271.5 93.5,271.5C 93.5,215.167 93.5,158.833 93.5,102.5 Z"/></g>
<g><path style="opacity:0.962" fill="#034e91" d="M 2141.5,131.5 C 2167.99,130.395 2183.99,142.728 2189.5,168.5C 2189.39,169.442 2189.06,170.275 2188.5,171C 2180.63,172.339 2172.8,173.839 2165,175.5C 2162.23,170.144 2159.07,164.978 2155.5,160C 2142.13,152.85 2133.13,156.516 2128.5,171C 2129.14,176.973 2132.14,181.307 2137.5,184C 2148.83,188 2160.17,192 2171.5,196C 2185.9,203.118 2193.23,214.784 2193.5,231C 2191.98,254.055 2179.98,268.055 2157.5,273C 2143.98,274.9 2130.98,273.233 2118.5,268C 2105.75,260.012 2098.42,248.512 2096.5,233.5C 2106.17,232.167 2115.83,230.833 2125.5,229.5C 2129.3,247.572 2139.97,253.406 2157.5,247C 2167.59,238.701 2167.92,230.034 2158.5,221C 2144.9,215.468 2131.23,210.134 2117.5,205C 2103,195.204 2097.83,181.704 2102,164.5C 2108.36,145.298 2121.53,134.298 2141.5,131.5 Z"/></g>
<g><path style="opacity:0.967" fill="#034e91" d="M 2301.5,133.5 C 2310.5,133.5 2319.5,133.5 2328.5,133.5C 2328.5,179.5 2328.5,225.5 2328.5,271.5C 2319.5,271.5 2310.5,271.5 2301.5,271.5C 2301.5,225.5 2301.5,179.5 2301.5,133.5 Z"/></g>
<g><path style="opacity:0.943" fill="#034e91" d="M 2504.5,133.5 C 2513.5,133.5 2522.5,133.5 2531.5,133.5C 2531.5,141.833 2531.5,150.167 2531.5,158.5C 2522.5,158.5 2513.5,158.5 2504.5,158.5C 2504.5,150.167 2504.5,141.833 2504.5,133.5 Z"/></g>
<g><path style="opacity:1" fill="#fefdfd" d="M 269.5,139.5 C 278.839,139.334 288.173,139.5 297.5,140C 329.136,146.294 346.803,165.294 350.5,197C 320.303,209.285 290.303,221.952 260.5,235C 265.48,239.323 271.147,242.323 277.5,244C 295.165,247.552 310.832,243.552 324.5,232C 325.5,231.333 326.5,231.333 327.5,232C 334.5,237.667 341.5,243.333 348.5,249C 334.697,262.725 318.031,270.725 298.5,273C 271.011,276.728 247.845,268.561 229,248.5C 214.438,227.115 211.438,204.115 220,179.5C 230.127,158.199 246.627,144.866 269.5,139.5 Z"/></g>
<g><path style="opacity:1" fill="#fefdfd" d="M 364.5,271.5 C 364.5,228.167 364.5,184.833 364.5,141.5C 376.167,141.5 387.833,141.5 399.5,141.5C 399.334,147.509 399.501,153.509 400,159.5C 400.717,158.956 401.217,158.289 401.5,157.5C 419.134,139.011 440.134,134.178 464.5,143C 482.689,150.866 492.855,164.699 495,184.5C 495.5,213.498 495.667,242.498 495.5,271.5C 483.5,271.5 471.5,271.5 459.5,271.5C 459.965,244.116 459.465,216.782 458,189.5C 452.697,176.672 443.031,170.339 429,170.5C 415.081,170.123 405.748,176.456 401,189.5C 399.535,216.782 399.035,244.116 399.5,271.5C 387.833,271.5 376.167,271.5 364.5,271.5 Z"/></g>
<g><path style="opacity:1" fill="#fefdfd" d="M 573.5,138.5 C 606.817,137.396 630.65,151.729 645,181.5C 655.077,212.812 647.577,238.979 622.5,260C 602.519,273.142 580.853,276.809 557.5,271C 527.015,260.337 510.682,238.837 508.5,206.5C 512.54,166.797 534.206,144.13 573.5,138.5 Z"/></g>
<g><path style="opacity:1" fill="#fefdfd" d="M 839.5,139.5 C 863.6,135.744 884.934,141.578 903.5,157C 926.557,181.519 930.724,209.019 916,239.5C 896.756,267.483 870.256,278.317 836.5,272C 798.985,259.827 781.818,233.993 785,194.5C 792.659,165.674 810.826,147.341 839.5,139.5 Z"/></g>
<g><path style="opacity:1" fill="#f0928d" d="M 684.5,141.5 C 670.99,141.171 657.656,141.504 644.5,142.5C 643.957,142.44 643.624,142.107 643.5,141.5C 657.328,140.174 670.994,140.174 684.5,141.5 Z"/></g>
<g><path style="opacity:1" fill="#ef908b" d="M 749.5,141.5 C 763.006,140.174 776.672,140.174 790.5,141.5C 790.376,142.107 790.043,142.44 789.5,142.5C 776.344,141.504 763.01,141.171 749.5,141.5 Z"/></g>
<g><path style="opacity:1" fill="#f7bfbb" d="M 399.5,141.5 C 387.833,141.5 376.167,141.5 364.5,141.5C 364.5,184.833 364.5,228.167 364.5,271.5C 363.501,228.003 363.168,184.337 363.5,140.5C 375.678,140.172 387.678,140.505 399.5,141.5 Z"/></g>
<g><path style="opacity:1" fill="#ea635a" d="M 399.5,141.5 C 400.167,146.833 400.833,152.167 401.5,157.5C 401.217,158.289 400.717,158.956 400,159.5C 399.501,153.509 399.334,147.509 399.5,141.5 Z"/></g>
<g><path style="opacity:1" fill="#fefdfd" d="M 684.5,141.5 C 695.403,170.363 706.236,199.363 717,228.5C 727.371,199.208 738.204,170.208 749.5,141.5C 763.01,141.171 776.344,141.504 789.5,142.5C 772.104,185.183 754.604,227.85 737,270.5C 723.579,271.49 710.079,271.823 696.5,271.5C 679.45,228.398 662.116,185.398 644.5,142.5C 657.656,141.504 670.99,141.171 684.5,141.5 Z"/></g>
<g><path style="opacity:0.962" fill="#034e91" d="M 2448.5,147.5 C 2457.5,147.5 2466.5,147.5 2475.5,147.5C 2475.5,155.833 2475.5,164.167 2475.5,172.5C 2482.5,172.5 2489.5,172.5 2496.5,172.5C 2496.5,179.833 2496.5,187.167 2496.5,194.5C 2489.5,194.5 2482.5,194.5 2475.5,194.5C 2475.07,212.88 2475.57,231.214 2477,249.5C 2478.76,252.589 2481.43,253.922 2485,253.5C 2488.96,252.934 2492.79,251.934 2496.5,250.5C 2496.5,257.5 2496.5,264.5 2496.5,271.5C 2487.6,273.381 2478.6,273.881 2469.5,273C 2456.26,268.741 2449.42,259.574 2449,245.5C 2448.5,228.503 2448.33,211.503 2448.5,194.5C 2444.5,194.5 2440.5,194.5 2436.5,194.5C 2436.5,187.167 2436.5,179.833 2436.5,172.5C 2440.5,172.5 2444.5,172.5 2448.5,172.5C 2448.5,164.167 2448.5,155.833 2448.5,147.5 Z"/></g>
<g><path style="opacity:1" fill="#e1281d" d="M 251.5,210.5 C 250.517,206.702 250.183,202.702 250.5,198.5C 252.586,182.246 261.586,172.079 277.5,168C 292.697,165.766 304.03,171.266 311.5,184.5C 310.221,186.146 308.555,187.313 306.5,188C 288.141,195.515 269.808,203.015 251.5,210.5 Z"/></g>
<g><path style="opacity:1" fill="#e1271c" d="M 572.5,169.5 C 601.961,170.128 615.461,185.128 613,214.5C 606.322,237.597 591.155,246.43 567.5,241C 550.205,232.582 542.705,218.749 545,199.5C 548.15,183.855 557.317,173.855 572.5,169.5 Z"/></g>
<g><path style="opacity:1" fill="#e1271c" d="M 847.5,169.5 C 877.449,170.285 890.949,185.618 888,215.5C 881.762,236.05 867.929,244.884 846.5,242C 832.481,237.98 823.981,228.813 821,214.5C 817.553,192.037 826.387,177.037 847.5,169.5 Z"/></g>
<g><path style="opacity:0.963" fill="#034e91" d="M 2236.5,170.5 C 2266.59,167.968 2284.09,181.635 2289,211.5C 2291.57,229.008 2287.9,245.008 2278,259.5C 2266.48,271.929 2252.31,276.429 2235.5,273C 2216.32,266.812 2205.49,253.646 2203,233.5C 2199.21,211.812 2205.04,193.312 2220.5,178C 2225.54,174.643 2230.88,172.143 2236.5,170.5 Z M 2242.5,190.5 C 2250.91,189.791 2256.41,193.457 2259,201.5C 2262.33,215.172 2262.33,228.838 2259,242.5C 2255.51,251.996 2249.01,255.163 2239.5,252C 2234.59,247.625 2231.76,242.125 2231,235.5C 2228.36,221.594 2230.03,208.26 2236,195.5C 2237.97,193.45 2240.13,191.783 2242.5,190.5 Z"/></g>
<g><path style="opacity:0.963" fill="#034e91" d="M 2578.5,170.5 C 2606.85,168.013 2624.01,180.68 2630,208.5C 2634.82,231.687 2628.66,251.187 2611.5,267C 2601,273.17 2589.67,275.17 2577.5,273C 2559.29,267.11 2548.46,254.61 2545,235.5C 2542.02,219.349 2544.35,204.015 2552,189.5C 2555.47,185.033 2559.3,180.867 2563.5,177C 2568.37,174.226 2573.37,172.059 2578.5,170.5 Z M 2584.5,190.5 C 2594.5,190.986 2600.33,196.319 2602,206.5C 2604,216.833 2604,227.167 2602,237.5C 2600.82,243.363 2597.99,248.196 2593.5,252C 2586.74,254.972 2581.24,253.472 2577,247.5C 2569.7,230.505 2569.7,213.505 2577,196.5C 2579.13,193.847 2581.63,191.847 2584.5,190.5 Z"/></g>
<g><path style="opacity:0.968" fill="#034e91" d="M 2690.5,170.5 C 2711.75,167.918 2723.25,177.252 2725,198.5C 2725.5,222.831 2725.67,247.164 2725.5,271.5C 2716.5,271.5 2707.5,271.5 2698.5,271.5C 2698.9,247.471 2698.4,223.471 2697,199.5C 2695.66,194.66 2692.5,192.327 2687.5,192.5C 2680.36,193.461 2674.52,196.794 2670,202.5C 2669.5,225.498 2669.33,248.498 2669.5,271.5C 2660.5,271.5 2651.5,271.5 2642.5,271.5C 2642.5,238.5 2642.5,205.5 2642.5,172.5C 2651.5,172.5 2660.5,172.5 2669.5,172.5C 2669.34,175.518 2669.5,178.518 2670,181.5C 2676.4,176.885 2683.23,173.218 2690.5,170.5 Z"/></g>
<g><path style="opacity:0.956" fill="#034e91" d="M 2810.5,233.5 C 2810.5,239.167 2810.5,244.833 2810.5,250.5C 2806.3,263.514 2797.3,271.014 2783.5,273C 2771.58,274.899 2760.24,273.232 2749.5,268C 2741.85,261.206 2737.52,252.706 2736.5,242.5C 2745.15,241.613 2753.82,240.946 2762.5,240.5C 2764.1,251.972 2770.43,255.806 2781.5,252C 2786.76,246.924 2786.76,241.924 2781.5,237C 2773.59,234.356 2765.59,232.023 2757.5,230C 2741.53,223.493 2735.36,211.659 2739,194.5C 2743.1,181.408 2751.93,173.574 2765.5,171C 2784.96,167.352 2799.12,174.185 2808,191.5C 2808.82,194.117 2809.32,196.784 2809.5,199.5C 2801.43,200.063 2793.43,201.063 2785.5,202.5C 2783.86,199.692 2782.36,196.692 2781,193.5C 2776.33,189.754 2771.5,189.588 2766.5,193C 2762.97,197.076 2762.63,201.409 2765.5,206C 2775.66,210.125 2785.99,213.791 2796.5,217C 2803.57,220.561 2808.24,226.061 2810.5,233.5 Z"/></g>
<g><path style="opacity:0.969" fill="#034e91" d="M 2346.5,172.5 C 2355.5,172.5 2364.5,172.5 2373.5,172.5C 2373.33,195.836 2373.5,219.169 2374,242.5C 2374.67,248.5 2378,251.833 2384,252.5C 2390.95,250.854 2396.62,247.188 2401,241.5C 2401.5,218.502 2401.67,195.502 2401.5,172.5C 2410.5,172.5 2419.5,172.5 2428.5,172.5C 2428.5,205.5 2428.5,238.5 2428.5,271.5C 2419.5,271.5 2410.5,271.5 2401.5,271.5C 2401.66,268.482 2401.5,265.482 2401,262.5C 2388.86,273.659 2375.03,276.492 2359.5,271C 2352.45,266.416 2348.29,259.916 2347,251.5C 2346.5,225.169 2346.33,198.835 2346.5,172.5 Z"/></g>
<g><path style="opacity:0.97" fill="#034e91" d="M 2504.5,172.5 C 2513.5,172.5 2522.5,172.5 2531.5,172.5C 2531.5,205.5 2531.5,238.5 2531.5,271.5C 2522.5,271.5 2513.5,271.5 2504.5,271.5C 2504.5,238.5 2504.5,205.5 2504.5,172.5 Z"/></g>
<g><path style="opacity:1" fill="#ec6e66" d="M 250.5,198.5 C 250.183,202.702 250.517,206.702 251.5,210.5C 251.44,211.043 251.107,211.376 250.5,211.5C 249.189,207.016 249.189,202.683 250.5,198.5 Z"/></g>
</svg>
